<svg width="24" height="24" viewBox="0 0 24 24" fill="none" xmlns="http://www.w3.org/2000/svg">
<path d="M14.2 2.87549C12.9734 2.87549 11.797 3.36276 10.9296 4.23012C10.0623 5.09748 9.575 6.27386 9.575 7.50049V10.0755H7.1C6.97574 10.0755 6.875 10.1762 6.875 10.3005V13.7005C6.875 13.8248 6.97574 13.9255 7.1 13.9255H9.575V20.9005C9.575 21.0248 9.67574 21.1255 9.8 21.1255H13.2C13.3243 21.1255 13.425 21.0248 13.425 20.9005V13.9255H15.9219C16.0252 13.9255 16.1152 13.8552 16.1402 13.7551L16.9902 10.3551C17.0257 10.2131 16.9183 10.0755 16.7719 10.0755H13.425V7.50049C13.425 7.29495 13.5067 7.09782 13.652 6.95248C13.7973 6.80714 13.9945 6.72549 14.2 6.72549H16.8C16.9243 6.72549 17.025 6.62475 17.025 6.50049V3.10049C17.025 2.97622 16.9243 2.87549 16.8 2.87549H14.2Z" fill="url(#paint0_linear_53_284)"/>
<defs>
<linearGradient id="paint0_linear_53_284" x1="9.43978" y1="21.1255" x2="19.3177" y2="9.23997" gradientUnits="userSpaceOnUse">
<stop stop-color="#FCEEE5"/>
<stop offset="1" stop-color="#DFF4FB"/>
</linearGradient>
</defs>
</svg>
