<svg width="24" height="24" viewBox="0 0 24 24" fill="none" xmlns="http://www.w3.org/2000/svg">
<path d="M5.81333 4.00049C4.81186 4.00049 4 4.8308 4 5.85503C4 6.87927 4.81186 7.70958 5.81333 7.70958C6.81481 7.70958 7.62667 6.87927 7.62667 5.85503C7.62667 4.8308 6.81481 4.00049 5.81333 4.00049Z" fill="url(#paint0_linear_53_286)"/>
<path d="M4.10667 9.23685C4.04776 9.23685 4 9.28569 4 9.34594V20.6914C4 20.7516 4.04776 20.8005 4.10667 20.8005H7.52C7.57891 20.8005 7.62667 20.7516 7.62667 20.6914V9.34594C7.62667 9.28569 7.57891 9.23685 7.52 9.23685H4.10667Z" fill="url(#paint1_linear_53_286)"/>
<path d="M9.65333 9.23685C9.59442 9.23685 9.54667 9.28569 9.54667 9.34594V20.6914C9.54667 20.7516 9.59442 20.8005 9.65333 20.8005H13.0667C13.1256 20.8005 13.1733 20.7516 13.1733 20.6914V14.5823C13.1733 14.1483 13.3419 13.7321 13.642 13.4252C13.942 13.1183 14.349 12.9459 14.7733 12.9459C15.1977 12.9459 15.6046 13.1183 15.9047 13.4252C16.2048 13.7321 16.3733 14.1483 16.3733 14.5823V20.6914C16.3733 20.7516 16.4211 20.8005 16.48 20.8005H19.8933C19.9522 20.8005 20 20.7516 20 20.6914V13.1687C20 11.0508 18.1989 9.39394 16.1385 9.58551C15.5031 9.64458 14.8748 9.80614 14.2882 10.0633L13.1733 10.5519V9.34594C13.1733 9.28569 13.1256 9.23685 13.0667 9.23685H9.65333Z" fill="url(#paint2_linear_53_286)"/>
<defs>
<linearGradient id="paint0_linear_53_286" x1="8.04301" y1="20.8005" x2="15.3093" y2="5.8287" gradientUnits="userSpaceOnUse">
<stop stop-color="#FCEEE5"/>
<stop offset="1" stop-color="#DFF4FB"/>
</linearGradient>
<linearGradient id="paint1_linear_53_286" x1="8.04301" y1="20.8005" x2="15.3093" y2="5.8287" gradientUnits="userSpaceOnUse">
<stop stop-color="#FCEEE5"/>
<stop offset="1" stop-color="#DFF4FB"/>
</linearGradient>
<linearGradient id="paint2_linear_53_286" x1="8.04301" y1="20.8005" x2="15.3093" y2="5.8287" gradientUnits="userSpaceOnUse">
<stop stop-color="#FCEEE5"/>
<stop offset="1" stop-color="#DFF4FB"/>
</linearGradient>
</defs>
</svg>
