<svg width="14" height="10" viewBox="0 0 14 10" fill="none" xmlns="http://www.w3.org/2000/svg">
<path d="M0.418125 9.5625V0.9225H3.91013C3.99413 0.9225 4.09813 0.9265 4.22213 0.9345C4.34613 0.9385 4.46413 0.9505 4.57613 0.9705C5.05613 1.0465 5.45613 1.2105 5.77612 1.4625C6.10013 1.7145 6.34213 2.0325 6.50213 2.4165C6.66213 2.8005 6.74213 3.2245 6.74213 3.6885C6.74213 4.3765 6.56613 4.9705 6.21413 5.4705C5.86213 5.9665 5.33413 6.2765 4.63013 6.4005L4.12013 6.4605H1.67213V9.5625H0.418125ZM5.47013 9.5625L3.76613 6.0465L5.03213 5.7225L6.90413 9.5625H5.47013ZM1.67213 5.2725H3.86213C3.94213 5.2725 4.03013 5.2685 4.12613 5.2605C4.22613 5.2525 4.32013 5.2385 4.40813 5.2185C4.66413 5.1585 4.87013 5.0485 5.02613 4.8885C5.18213 4.7245 5.29413 4.5365 5.36213 4.3245C5.43013 4.1125 5.46413 3.9005 5.46413 3.6885C5.46413 3.4765 5.43013 3.2665 5.36213 3.0585C5.29413 2.8465 5.18213 2.6605 5.02613 2.5005C4.87013 2.3365 4.66413 2.2245 4.40813 2.1645C4.32013 2.1405 4.22613 2.1245 4.12613 2.1165C4.03013 2.1085 3.94213 2.1045 3.86213 2.1045H1.67213V5.2725ZM7.50281 9.5625L9.92681 6.2865L7.55681 3.0825H9.04481L10.6588 5.3085L12.2548 3.0825H13.7428L11.3728 6.2865L13.8028 9.5625H12.3088L10.6588 7.2645L8.99681 9.5625H7.50281Z" fill="black"/>
</svg>
